<svg width="90" height="90" viewBox="0 0 90 90" fill="none" xmlns="http://www.w3.org/2000/svg">
<rect width="90" height="90" fill="#E5E5E5"/>
<g id="Frame">
<rect id="Rectangle 8" x="-819" y="-1567" width="1445" height="4759" fill="white"/>
<g id="Group 2">
<rect id="Rectangle 7" x="-823" y="-1541" width="1445" height="4759" fill="white"/>
<g id="Group 6">
<g id="Group">
<path id="Vector" d="M-10.9297 30.4531H70.8308V111.458H-10.9297V30.4531Z" fill="url(#paint0_radial_0_1)"/>
<g id="Group_2">
<path id="Vector_2" d="M-10.9297 30.4537H70.8308V111.459H-10.9297V30.4537ZM-14.6453 115.242H74.5643V26.6699H-14.6453V115.242ZM48.4659 69.3644C50.3594 69.3644 51.0383 69.3644 51.2169 69.2916C51.2169 69.0188 51.2883 68.8369 51.2883 68.6549C51.2883 66.6175 50.3237 62.8338 46.4652 62.8338C42.8926 62.8338 41.3742 66.0172 40.9991 69.3826H48.4659V69.3644ZM40.9276 74.5489C40.9991 79.6606 43.3749 83.0987 49.0376 83.0987C51.2347 83.0987 53.1283 82.7894 55.0932 81.9344C55.3612 81.8253 55.5398 81.8617 55.5398 82.2073V86.937C55.5398 87.319 55.4326 87.5009 55.1647 87.701C53.1997 88.6833 50.7346 89.1381 47.6978 89.1381C37.8908 89.1381 34.211 81.7525 34.211 73.5483C34.211 64.6165 38.7483 57.3037 46.7332 57.3037C54.8431 57.3037 57.6656 64.2345 57.6656 69.8737C57.6656 71.6929 57.5584 73.1663 57.3619 73.894C57.2904 74.2032 57.1832 74.3124 56.8796 74.3851C56.1293 74.4943 53.95 74.658 50.681 74.658H40.9455V74.5489H40.9276ZM20.9921 70.6923C19.956 66.4902 17.4194 57.3401 16.4905 52.9015H16.4191C15.6331 57.3219 13.5967 64.8166 12.0783 70.6923H20.9921ZM10.5599 76.8227L7.63033 88.1376C7.55887 88.4468 7.45169 88.556 7.07656 88.556H1.59252C1.21739 88.556 1.14593 88.4468 1.21739 87.9921L11.7746 50.4093C11.9533 49.7362 12.0783 49.1905 12.1498 47.2986C12.1498 47.0257 12.2569 46.9166 12.4534 46.9166H20.2597C20.5277 46.9166 20.6348 46.9894 20.7063 47.2986L32.514 88.0648C32.5854 88.3741 32.514 88.556 32.2103 88.556H26.0832C25.7795 88.556 25.6008 88.4468 25.5294 88.174L22.4748 76.8227H10.5599Z" fill="#D8A1FF"/>
</g>
</g>
</g>
</g>
<g id="Group 3">
<rect id="Rectangle 7_2" x="-823" y="-1541" width="1445" height="4759" fill="white"/>
<g id="Group 6_2">
<g id="Group_3">
<path id="Vector_3" d="M-10.9297 30.4531H70.8308V111.458H-10.9297V30.4531Z" fill="url(#paint1_radial_0_1)"/>
<g id="Group_4">
<path id="Vector_4" d="M-10.9297 30.4537H70.8308V111.459H-10.9297V30.4537ZM-14.6453 115.242H74.5643V26.6699H-14.6453V115.242ZM48.4659 69.3644C50.3594 69.3644 51.0383 69.3644 51.2169 69.2916C51.2169 69.0188 51.2883 68.8369 51.2883 68.6549C51.2883 66.6175 50.3237 62.8338 46.4652 62.8338C42.8926 62.8338 41.3742 66.0172 40.9991 69.3826H48.4659V69.3644ZM40.9276 74.5489C40.9991 79.6606 43.3749 83.0987 49.0376 83.0987C51.2347 83.0987 53.1283 82.7894 55.0932 81.9344C55.3612 81.8253 55.5398 81.8617 55.5398 82.2073V86.937C55.5398 87.319 55.4326 87.5009 55.1647 87.701C53.1997 88.6833 50.7346 89.1381 47.6978 89.1381C37.8908 89.1381 34.211 81.7525 34.211 73.5483C34.211 64.6165 38.7483 57.3037 46.7332 57.3037C54.8431 57.3037 57.6656 64.2345 57.6656 69.8737C57.6656 71.6929 57.5584 73.1663 57.3619 73.894C57.2904 74.2032 57.1832 74.3124 56.8796 74.3851C56.1293 74.4943 53.95 74.658 50.681 74.658H40.9455V74.5489H40.9276ZM20.9921 70.6923C19.956 66.4902 17.4194 57.3401 16.4905 52.9015H16.4191C15.6331 57.3219 13.5967 64.8166 12.0783 70.6923H20.9921ZM10.5599 76.8227L7.63033 88.1376C7.55887 88.4468 7.45169 88.556 7.07656 88.556H1.59252C1.21739 88.556 1.14593 88.4468 1.21739 87.9921L11.7746 50.4093C11.9533 49.7362 12.0783 49.1905 12.1498 47.2986C12.1498 47.0257 12.2569 46.9166 12.4534 46.9166H20.2597C20.5277 46.9166 20.6348 46.9894 20.7063 47.2986L32.514 88.0648C32.5854 88.3741 32.514 88.556 32.2103 88.556H26.0832C25.7795 88.556 25.6008 88.4468 25.5294 88.174L22.4748 76.8227H10.5599Z" fill="#D8A1FF"/>
</g>
</g>
</g>
</g>
<g id="Group 4">
<rect id="Rectangle 7_3" x="-808" y="-1567" width="1445" height="4759" fill="white"/>
<g id="Group 6_3">
<g id="Group_5">
<path id="Vector_5" d="M4.07031 4.45312H85.8308V85.458H4.07031V4.45312Z" fill="url(#paint2_radial_0_1)"/>
<g id="Group_6">
<path id="Vector_6" d="M4.07031 4.45367H85.8308V85.4586H4.07031V4.45367ZM0.354736 89.2423H89.5643V0.669922H0.354736V89.2423ZM63.4659 43.3644C65.3594 43.3644 66.0383 43.3644 66.2169 43.2916C66.2169 43.0188 66.2883 42.8369 66.2883 42.6549C66.2883 40.6175 65.3237 36.8338 61.4652 36.8338C57.8926 36.8338 56.3742 40.0172 55.9991 43.3826H63.4659V43.3644ZM55.9276 48.5489C55.9991 53.6606 58.3749 57.0987 64.0376 57.0987C66.2347 57.0987 68.1283 56.7894 70.0932 55.9344C70.3612 55.8253 70.5398 55.8617 70.5398 56.2073V60.937C70.5398 61.319 70.4326 61.5009 70.1647 61.701C68.1997 62.6833 65.7346 63.1381 62.6978 63.1381C52.8908 63.1381 49.211 55.7525 49.211 47.5483C49.211 38.6165 53.7483 31.3037 61.7332 31.3037C69.8431 31.3037 72.6656 38.2345 72.6656 43.8737C72.6656 45.6929 72.5584 47.1663 72.3619 47.894C72.2904 48.2032 72.1832 48.3124 71.8796 48.3851C71.1293 48.4943 68.95 48.658 65.681 48.658H55.9455V48.5489H55.9276ZM35.9921 44.6923C34.956 40.4902 32.4194 31.3401 31.4905 26.9015H31.4191C30.6331 31.3219 28.5967 38.8166 27.0783 44.6923H35.9921ZM25.5599 50.8227L22.6303 62.1376C22.5589 62.4468 22.4517 62.556 22.0766 62.556H16.5925C16.2174 62.556 16.1459 62.4468 16.2174 61.9921L26.7746 24.4093C26.9533 23.7362 27.0783 23.1905 27.1498 21.2986C27.1498 21.0257 27.2569 20.9166 27.4534 20.9166H35.2597C35.5277 20.9166 35.6348 20.9894 35.7063 21.2986L47.514 62.0648C47.5854 62.3741 47.514 62.556 47.2103 62.556H41.0832C40.7795 62.556 40.6008 62.4468 40.5294 62.174L37.4748 50.8227H25.5599Z" fill="#D8A1FF"/>
</g>
</g>
</g>
</g>
</g>
<defs>
<radialGradient id="paint0_radial_0_1" cx="0" cy="0" r="1" gradientUnits="userSpaceOnUse" gradientTransform="translate(16.0228 48.6143) scale(62.1407 61.2673)">
<stop stop-color="#442F55" stop-opacity="0.98"/>
<stop offset="1" stop-color="#12002C"/>
</radialGradient>
<radialGradient id="paint1_radial_0_1" cx="0" cy="0" r="1" gradientUnits="userSpaceOnUse" gradientTransform="translate(16.0228 48.6143) scale(62.1407 61.2673)">
<stop stop-color="#442F55" stop-opacity="0.98"/>
<stop offset="1" stop-color="#12002C"/>
</radialGradient>
<radialGradient id="paint2_radial_0_1" cx="0" cy="0" r="1" gradientUnits="userSpaceOnUse" gradientTransform="translate(31.0228 22.6143) scale(62.1407 61.2673)">
<stop stop-color="#442F55" stop-opacity="0.98"/>
<stop offset="1" stop-color="#12002C"/>
</radialGradient>
</defs>
</svg>
